<?xml version="1.0" encoding="iso-8859-1"?>
<!-- Generator: Adobe Illustrator 18.1.1, SVG Export Plug-In . SVG Version: 6.00 Build 0)  -->
<svg xmlns="http://www.w3.org/2000/svg" xmlns:xlink="http://www.w3.org/1999/xlink" version="1.1" id="Capa_1" x="0px" y="0px" viewBox="0 0 52.981 52.981" style="enable-background:new 0 0 52.981 52.981;" xml:space="preserve" width="512px" height="512px">
<g>
	<path d="M52.234,6.749c-0.979-0.979-2.545-0.979-3.523,0L43,12.482V5.627c0-0.828-0.719-0.626-1.548-0.626   H1.638C0.81,5.001,0,4.799,0,5.627v39.815c0,0.829,0.81,2.559,1.638,2.559h39.814c0.829,0,1.548-1.73,1.548-2.559V19.578   l9.258-9.281C53.238,9.317,53.214,7.73,52.234,6.749z M40,45.001H3v-37h37v7.481L23.602,31.858L11.257,19.524   c-0.979-0.979-2.575-0.979-3.554,0c-0.98,0.98-0.984,2.568-0.004,3.548l14.105,14.107c0.49,0.49,1.131,0.735,1.773,0.735   s1.309-0.245,1.798-0.735L40,22.578V45.001z" fill="#D80027"/>
</g>
<g>
</g>
<g>
</g>
<g>
</g>
<g>
</g>
<g>
</g>
<g>
</g>
<g>
</g>
<g>
</g>
<g>
</g>
<g>
</g>
<g>
</g>
<g>
</g>
<g>
</g>
<g>
</g>
<g>
</g>
</svg>
